# xmcd CD database file
#
# Track frame offsets:
#	150
#	15628
#	27663
#	44543
#	60409
#	78835
#	100836
#	113129
#	124576
#	140313
#	165202
#	183459
#	238715
#	264139
#	278322
#	304497
#	328671
#	340162
#
# Disc length: 4765 seconds
#
# Revision: 0
# Processed by: cddbd v1.5.1PL2 Copyright (c) Steve Scherf et al.
# Submitted via: Feurio! 1.68 - http://www.feurio.com
#
DISCID=e8129b12
DTITLE=Bobby "Blue" Bland - Down Home Blues
DYEAR=1900
DGENRE=
TTITLE0=Bobby 'Blue' Bland - I Wanna Tell You About The Blues
TTITLE1=Bobby 'Blue' Bland - Cold Day In Hell
TTITLE2=Bobby 'Blue' Bland - Ain't No Love In The Heart Of The City
TTITLE3=Bobby 'Blue' Bland - Blind Man
TTITLE4=Bobby 'Blue' Bland - Down Home Blues
TTITLE5=Bobby 'Blue' Bland - Hole in the Wall
TTITLE6=Bobby 'Blue' Bland - I Woke Up Screaming
TTITLE7=Bobby 'Blue' Bland - Two Steps From The Blues
TTITLE8=Bobby 'Blue' Bland - This Time I'm Gone For Good
TTITLE9=Bobby 'Blue' Bland - Goin' Down Slow
TTITLE10=Bobby 'Blue' Bland - Members Only
TTITLE11=BB King and Bobby 'Blue' Bland - The Thrill Is Gone- I Ain't Gonna Be 
TTITLE11=The First To Cry
TTITLE12=BB King and Bobby 'Blue' Bland -  Mean Old World
TTITLE13=BB King and Bobby 'Blue Bland - 3 O'clock Blues
TTITLE14=BB King and Bobby 'Blue' Bland - I Like To Live The Love (Live)
TTITLE15=BB King and Bobby 'Blue' Bland - Let The Good Times Roll
TTITLE16=BB King and Bobby 'Blue' Bland - Don't Cry No More
TTITLE17=BB King and Bobby 'Blue' Bland - Everday (I have the blues)
EXTD=
EXTT0=
EXTT1=
EXTT2=
EXTT3=
EXTT4=
EXTT5=
EXTT6=
EXTT7=
EXTT8=
EXTT9=
EXTT10=
EXTT11=
EXTT12=
EXTT13=
EXTT14=
EXTT15=
EXTT16=
EXTT17=
PLAYORDER=
